#N canvas 58 250 474 435 10;
#X declare -path include;
#N canvas 373 104 900 730 main 1;
#X obj 53 34 notein;
#X floatatom 53 82 5 0 0 0 - - -, f 5;
#X obj 34 81 bng 15 250 50 0 empty empty empty 17 7 0 10 -262144 -1
-1;
#X floatatom 91 82 5 0 0 0 - - -, f 5;
#X floatatom 129 80 5 0 0 0 - - -, f 5;
#X obj 283 29 ctlin, f 6;
#X floatatom 284 81 5 0 0 0 - - -, f 5;
#X floatatom 321 81 5 0 0 0 - - -, f 5;
#X floatatom 357 81 5 0 0 0 - - -, f 5;
#X obj 53 107 - 48;
#X floatatom 53 135 5 0 0 0 - - -, f 5;
#X obj 523 469 adc~, f 6;
#X obj 575 490 dbtorms;
#X floatatom 575 467 5 0 0 0 - #0_input_amp -, f 5;
#X obj 531 543 *~ 0;
#X floatatom 531 639 5 0 0 0 - - #0_input_level_00, f 5;
#X obj 531 614 env~;
#X obj 569 543 *~ 0;
#X floatatom 569 639 5 0 0 0 - - #0_input_level_01, f 5;
#X obj 569 614 env~;
#X obj 780 641 dac~;
#X obj 853 580 dbtorms;
#X floatatom 853 557 5 0 0 0 - #0_output_amp -, f 5;
#X obj 780 613 *~ 0;
#X obj 818 613 *~ 0;
#X obj 467 31 declare -path include;
#X obj 642 609 send~ snd_00;
#X obj 642 640 send~ snd_01;
#X floatatom 697 537 5 0 0 0 - - #0_output_level_00, f 5;
#X obj 697 512 env~;
#X floatatom 735 537 5 0 0 0 - - #0_output_level_01, f 5;
#X obj 735 512 env~;
#X obj 780 444 catch~ out_00;
#X obj 818 469 catch~ out_01;
#N canvas 819 286 461 420 sample_banks 0;
#X obj 26 30 samples bank0;
#X obj 26 51 samples bank1;
#X obj 27 72 samples bank2;
#X obj 27 93 samples bank3;
#X obj 27 116 samples bank4;
#X obj 27 137 samples bank5;
#X obj 27 158 samples bank6;
#X obj 27 180 samples bank7;
#X restore 467 73 pd sample_banks;
#X floatatom 87 375 5 0 0 0 - - -, f 5;
#X obj 59 375 tgl 15 0 empty empty empty 17 7 0 10 -262144 -1 -1 0
1;
#X obj 59 430 pack f f f;
#X obj 116 511 s reset;
#X obj 59 510 s sample;
#X obj 59 483 t l b, f 10;
#X obj 53 160 pack f f;
#X obj 217 127 tgl 15 0 empty empty empty 17 7 0 10 -262144 -1 -1 0
1;
#X obj 232 218 spigot 1;
#X obj 53 210 spigot 0;
#X obj 217 161 == 0;
#X text 111 211 to rec;
#X text 289 219 to play;
#X floatatom 381 284 5 0 0 0 bank - -, f 5;
#X obj 236 519 s sample;
#X obj 236 492 t l b, f 10;
#X text 237 128 rec mode;
#X obj 236 439 pack f f;
#X msg 236 465 list bank\$2 pad\$1 play;
#X msg 59 456 list bank\$3 pad\$2 rec \$1;
#X obj 232 245 unpack f f;
#X obj 294 163 sel 0, f 6;
#X obj 294 185 s reset;
#X obj 231 299 spigot;
#X obj 43 243 unpack f f;
#X obj 59 352 swap;
#X obj 264 273 > 0;
#X obj 94 281 > 0;
#X obj 443 300 until;
#X msg 443 277 16;
#X obj 443 330 f;
#X obj 471 330 + 1;
#X msg 479 275 0;
#X obj 443 251 t b b;
#X msg 443 220 bang;
#X msg 443 380 list bank\$2 pad\$1 write;
#X obj 443 414 s sample;
#X obj 443 354 pack f f;
#X text 441 186 write;
#X obj 609 299 until;
#X msg 609 276 16;
#X obj 609 329 f;
#X obj 637 329 + 1;
#X msg 645 274 0;
#X obj 609 250 t b b;
#X msg 609 219 bang;
#X obj 609 413 s sample;
#X obj 609 353 pack f f;
#X msg 609 379 list bank\$2 pad\$1 read;
#X text 605 186 read;
#X connect 0 0 1 0;
#X connect 0 0 2 0;
#X connect 0 1 3 0;
#X connect 0 2 4 0;
#X connect 1 0 9 0;
#X connect 3 0 41 1;
#X connect 5 0 6 0;
#X connect 5 1 7 0;
#X connect 5 2 8 0;
#X connect 9 0 10 0;
#X connect 10 0 41 0;
#X connect 11 0 14 0;
#X connect 11 1 17 0;
#X connect 12 0 14 1;
#X connect 12 0 17 1;
#X connect 13 0 12 0;
#X connect 14 0 16 0;
#X connect 14 0 27 0;
#X connect 16 0 15 0;
#X connect 17 0 19 0;
#X connect 17 0 26 0;
#X connect 19 0 18 0;
#X connect 21 0 23 1;
#X connect 21 0 24 1;
#X connect 22 0 21 0;
#X connect 23 0 20 0;
#X connect 24 0 20 1;
#X connect 29 0 28 0;
#X connect 31 0 30 0;
#X connect 32 0 23 0;
#X connect 32 0 29 0;
#X connect 33 0 24 0;
#X connect 33 0 31 0;
#X connect 35 0 37 1;
#X connect 36 0 37 0;
#X connect 37 0 54 0;
#X connect 40 0 39 0;
#X connect 40 1 38 0;
#X connect 41 0 44 0;
#X connect 41 0 43 0;
#X connect 42 0 44 1;
#X connect 42 0 45 0;
#X connect 42 0 56 0;
#X connect 43 0 55 0;
#X connect 44 0 59 0;
#X connect 45 0 43 1;
#X connect 48 0 52 1;
#X connect 48 0 37 2;
#X connect 48 0 72 1;
#X connect 48 0 82 1;
#X connect 50 0 49 0;
#X connect 52 0 53 0;
#X connect 53 0 50 0;
#X connect 54 0 40 0;
#X connect 55 0 58 0;
#X connect 55 1 61 0;
#X connect 56 0 57 0;
#X connect 58 0 52 0;
#X connect 59 0 60 0;
#X connect 59 1 62 0;
#X connect 60 0 36 0;
#X connect 60 1 35 0;
#X connect 61 0 58 1;
#X connect 62 0 60 1;
#X connect 63 0 65 0;
#X connect 64 0 63 0;
#X connect 65 0 66 0;
#X connect 65 0 72 0;
#X connect 66 0 65 1;
#X connect 67 0 65 1;
#X connect 68 0 64 0;
#X connect 68 1 67 0;
#X connect 69 0 68 0;
#X connect 70 0 71 0;
#X connect 72 0 70 0;
#X connect 74 0 76 0;
#X connect 75 0 74 0;
#X connect 76 0 77 0;
#X connect 76 0 82 0;
#X connect 77 0 76 1;
#X connect 78 0 76 1;
#X connect 79 0 75 0;
#X connect 79 1 78 0;
#X connect 80 0 79 0;
#X connect 82 0 83 0;
#X connect 83 0 81 0;
#X restore 24 94 pd main;
#X obj 98 204 vsl 30 128 0 127 0 0 \$0_input_amp empty INPUT 0 -9 0
10 -262144 -1 -1 9900 1;
#X obj 223 204 vsl 30 128 0 127 0 0 \$0_output_amp empty OUTPUT 0 -9
0 10 -262144 -1 -1 10000 1;
#X text 129 224 -0dB;
#X text 254 224 -0dB;
#X obj 17 14 cnv 15 100 60 empty empty Sampler4MidiPad 20 12 0 14 -233017
-66577 0;
#X obj 76 204 vsl 10 128 0 127 0 0 empty \$0_input_level_00 empty 0
-9 0 10 -228856 -4160 -1 6915 1;
#X obj 86 204 vsl 10 128 0 127 0 0 empty \$0_input_level_01 empty 0
-9 0 10 -228856 -4160 -1 6915 1;
#X obj 201 204 vsl 10 128 0 127 0 0 empty \$0_output_level_00 empty
0 -9 0 10 -228856 -4160 -1 0 1;
#X obj 211 204 vsl 10 128 0 127 0 0 empty \$0_output_level_01 empty
0 -9 0 10 -228856 -4160 -1 0 1;
