#N canvas 470 166 898 731 10;
#X obj 171 96 route \$2;
#X msg 114 418 stop;
#X msg 74 417 bang;
#X obj 73 212 sel 1 0;
#X msg 284 265 44100;
#X msg 326 267 0;
#X obj 284 290 * 6;
#X obj 73 297 t b b;
#X obj 125 314 t b b;
#N canvas 521 198 456 565 timer 0;
#X obj 79 245 + 1;
#X msg 79 116 bang;
#X obj 79 198 float;
#X msg 168 116 stop;
#X msg 168 158 0;
#X floatatom 79 277 5 0 0 0 - - -, f 5;
#X obj 79 29 inlet;
#X obj 79 58 sel 1 0;
#X obj 139 328 float;
#X obj 80 156 metro 10;
#X obj 138 87 t b b;
#X obj 140 426 outlet;
#X connect 0 0 2 1;
#X connect 0 0 5 0;
#X connect 1 0 9 0;
#X connect 2 0 0 0;
#X connect 3 0 4 0;
#X connect 3 0 9 0;
#X connect 4 0 2 1;
#X connect 5 0 8 1;
#X connect 6 0 7 0;
#X connect 7 0 1 0;
#X connect 7 1 10 0;
#X connect 8 0 11 0;
#X connect 9 0 2 0;
#X connect 10 0 8 0;
#X connect 10 1 3 0;
#X restore 360 267 pd timer;
#X floatatom 360 293 5 0 0 0 - - -, f 5;
#X obj 283 198 t b b b;
#X msg 351 243 1;
#X obj 360 314 * 441;
#X obj 217 440 float;
#X msg 220 467 0 \$1;
#X obj 171 21 r sample;
#X msg 382 243 0;
#X msg 207 179 bang;
#X obj 256 618 tabplay~ \$1_\$2_00;
#X obj 312 562 tabplay~ \$1_\$2_01;
#X obj 110 586 tabwrite~ \$1_\$2_00;
#X obj 65 618 tabwrite~ \$1_\$2_01;
#X obj 34 543 receive~ snd_00;
#X obj 45 513 receive~ snd_01;
#X obj 256 643 throw~ out_00;
#X obj 312 586 throw~ out_01;
#X obj 23 23 array define \$1_\$2_00;
#X obj 23 44 array define \$1_\$2_01;
#X obj 363 401 array size \$1_\$2_00;
#X obj 351 423 array size \$1_\$2_01;
#X floatatom 351 371 10 0 0 0 - - -, f 10;
#X obj 171 71 route \$1;
#X obj 222 314 r reset;
#X obj 222 337 bang;
#X obj 563 467 soundfiler;
#X obj 171 46 list trim;
#X text 229 21 list[bank][pad][rec/play/read/write][value...];
#X obj 171 120 route rec play read write;
#X obj 565 221 symbol \$1;
#X obj 628 221 symbol \$2;
#X obj 565 247 pack s s;
#X obj 565 197 t b b;
#X msg 565 175 bang;
#X obj 590 363 symbol \$1;
#X obj 652 363 symbol \$2;
#X obj 590 389 pack s s;
#X obj 590 339 t b b;
#X msg 590 317 bang;
#X msg 565 273 read -resize ../sound/\$1_\$2.aif \$1_\$2_00 \$1_\$2_01
;
#X msg 590 415 write -aiff ../sound/\$1_\$2.aif \$1_\$2_00 \$1_\$2_01
;
#X floatatom 563 492 10 0 0 0 - - -, f 10;
#X connect 0 0 38 0;
#X connect 1 0 21 0;
#X connect 1 0 22 0;
#X connect 2 0 21 0;
#X connect 2 0 22 0;
#X connect 3 0 7 0;
#X connect 3 1 8 0;
#X connect 4 0 6 0;
#X connect 5 0 31 0;
#X connect 6 0 31 0;
#X connect 7 0 2 0;
#X connect 7 1 11 0;
#X connect 8 0 17 0;
#X connect 8 1 1 0;
#X connect 9 0 10 0;
#X connect 10 0 13 0;
#X connect 11 0 4 0;
#X connect 11 1 5 0;
#X connect 11 2 12 0;
#X connect 12 0 9 0;
#X connect 13 0 14 1;
#X connect 13 0 31 0;
#X connect 14 0 15 0;
#X connect 15 0 19 0;
#X connect 15 0 20 0;
#X connect 16 0 36 0;
#X connect 17 0 9 0;
#X connect 18 0 14 0;
#X connect 19 0 25 0;
#X connect 20 0 26 0;
#X connect 23 0 22 0;
#X connect 24 0 21 0;
#X connect 31 0 29 0;
#X connect 31 0 30 0;
#X connect 32 0 0 0;
#X connect 33 0 34 0;
#X connect 34 0 1 0;
#X connect 35 0 51 0;
#X connect 36 0 32 0;
#X connect 38 0 3 0;
#X connect 38 1 18 0;
#X connect 38 2 43 0;
#X connect 38 3 48 0;
#X connect 39 0 41 0;
#X connect 40 0 41 1;
#X connect 41 0 49 0;
#X connect 42 0 39 0;
#X connect 42 1 40 0;
#X connect 43 0 42 0;
#X connect 44 0 46 0;
#X connect 45 0 46 1;
#X connect 46 0 50 0;
#X connect 47 0 44 0;
#X connect 47 1 45 0;
#X connect 48 0 47 0;
#X connect 49 0 35 0;
#X connect 50 0 35 0;
